# xmcd
# Copyright (C) 1995-1998 Ti Kan
#
# Track frame offsets:
#       150
#       12060
#       25555
#       36455
#       49968
#       62968
#       75293
#       87493
#       101165
#       113095
#       127570
#       141503
#       153263
#       166868
#       179473
#       195950
#       207960
#       221628
#
# Disc length: 3119 seconds
#
# Revision: 0
# Processed by: cddbd v1.5.2PL0 Copyright (c) Steve Scherf et al.
# Submitted via: CD-Import v1.0
#
DISCID=eb0c2d12
DTITLE=Delmore Brothers - Brown's Ferry Blues 
DYEAR=1900
DGENRE=
TTITLE0=Rainin' On The Mountain
TTITLE1=Blue Railroad Train
TTITLE2=The Nashville Blues
TTITLE3=Gonna Lay Down My Old Guitar
TTITLE4=Blow Yo' Whistle, Freight Train
TTITLE5=The Fugitive's Lament
TTITLE6=The Weary Lonesome Blues
TTITLE7=I've Got The Big River Blues
TTITLE8=Happy On The Mississippi Shore
TTITLE9=Don't You See That Train
TTITLE10=The Frozen Girl
TTITLE11=See That Coon In A Hickory Tree
TTITLE12=The Lover's Warning
TTITLE13=Don't Let My Ramblin' Brother  Your Mind
TTITLE14=Take Me Back To The Range
TTITLE15=Back To Birningham
TTITLE16=Till The Roses Bloom Again
TTITLE17=Brown's Ferry Blues
EXTD=
EXTT0=
EXTT1=
EXTT2=
EXTT3=
EXTT4=
EXTT5=
EXTT6=
EXTT7=
EXTT8=
EXTT9=
EXTT10=
EXTT11=
EXTT12=
EXTT13=
EXTT14=
EXTT15=
EXTT16=
EXTT17=
PLAYORDER=
